<?xml version="1.0" encoding="UTF-8"?>
<!-- Generator: Adobe Illustrator 25.3.1, SVG Export Plug-In . SVG Version: 6.00 Build 0)  -->
<svg version="1.1" id="Capa_1" xmlns="http://www.w3.org/2000/svg" xmlns:xlink="http://www.w3.org/1999/xlink" x="0px" y="0px" viewBox="42 141 330 459.5" style="enable-background:new 42 141 330 459.5;" xml:space="preserve">
<style type="text/css">
	.st0{fill:#DF7F58;}
</style>
<path class="st0" d="M372,307c0-91.02-73.86-166-165-166c-90.84,0-165,74.83-165,166c0,34.3,10.7,68.09,31.19,96.45l121.16,190.12  c2.75,4.32,7.52,6.94,12.65,6.94s9.9-2.62,12.65-6.94c0,0,120.46-189.1,122.03-191.33C361.52,374.25,372,341.32,372,307z   M207,557.59L98.25,386.95c-0.17-0.26-0.34-0.51-0.52-0.76C80.68,362.73,72,334.94,72,307c0-75.02,60.41-136,135-136  c74.44,0,135,61.01,135,136c0,27.99-8.52,54.84-24.65,77.67C315.91,386.58,323.45,374.86,207,557.59z"/>
<path class="st0" d="M282,307c0-41.35-33.64-75-75-75s-75,33.65-75,75s33.65,75,75,75S282,348.35,282,307z M162,307  c0-24.81,20.19-45,45-45s45,20.19,45,45s-20.19,45-45,45S162,331.81,162,307z"/>
</svg>